<?xml version="1.0" encoding="UTF-8"?>
<svg width="391px" height="110px" viewBox="0 0 391 110" version="1.1" xmlns="http://www.w3.org/2000/svg" xmlns:xlink="http://www.w3.org/1999/xlink">
    <!-- Generator: Sketch 41.2 (35397) - http://www.bohemiancoding.com/sketch -->
    <title>MP_Horizontal_white_text</title>
    <desc>Created with Sketch.</desc>
    <defs></defs>
    <g id="Horizontal" stroke="none" stroke-width="1" fill="none" fill-rule="evenodd">
        <g id="MP_Horizontal_white_text">
            <g id="Text" transform="translate(119.000000, 22.000000)" fill="#FFFFFF">
                <path d="M1.3907,0.854 C2.0397,0.854 2.6437,1.354 3.5457,2.355 L17.9637,17.977 L32.3317,2.355 C33.2837,1.354 33.8327,0.854 34.4867,0.854 C35.3347,0.854 35.6857,1.557 35.6857,2.756 L35.6857,35.1 C35.6857,35.997 35.2847,36.402 34.3837,36.402 L28.3247,36.402 C27.4267,36.402 26.9757,35.997 26.9757,35.1 L26.9757,19.979 L19.8167,28.139 C18.9147,29.144 18.4637,29.491 17.9137,29.491 C17.4137,29.491 16.9587,29.189 16.0607,28.139 L8.9017,19.979 L8.9017,35.1 C8.9017,35.997 8.5007,36.402 7.5497,36.402 L1.4947,36.402 C0.5887,36.402 0.1917,35.997 0.1917,35.1 L0.1917,2.756 C0.1917,1.557 0.5887,0.854 1.3907,0.854" id="Fill-1"></path>
                <path d="M69.9195,18.9282 C69.9195,12.7202 65.6635,8.7132 60.1545,8.7132 C54.6005,8.7132 50.4435,12.7742 50.4435,18.9282 C50.4435,25.0372 54.5505,29.0412 60.1055,29.0412 C65.6145,29.0412 69.9195,24.9882 69.9195,18.9282 M60.1545,0.7052 C71.0695,0.7052 78.9315,8.2612 78.9315,18.8792 C78.9315,29.5412 71.0205,37.0522 60.0555,37.0522 C49.2935,37.0522 41.4315,29.5912 41.4315,18.9782 C41.4315,8.3152 49.3395,0.7052 60.1545,0.7052" id="Fill-3"></path>
                <path d="M85.5269,1.3545 L91.5859,1.3545 C92.5369,1.3545 92.9389,1.7555 92.9389,2.6575 L92.9389,20.6815 C92.9389,26.0375 95.3409,29.0405 100.0479,29.0405 C104.7009,29.0405 107.2069,26.0375 107.2069,20.6815 L107.2069,2.6575 C107.2069,1.7555 107.6049,1.3545 108.5099,1.3545 L114.5689,1.3545 C115.5159,1.3545 115.9179,1.7555 115.9179,2.6575 L115.9179,21.2815 C115.9179,31.8445 109.2089,37.0515 99.7459,37.0515 C90.6839,37.0515 84.2239,32.1425 84.2239,21.3805 L84.2239,2.6575 C84.2239,1.7555 84.6289,1.3545 85.5269,1.3545" id="Fill-5"></path>
                <path d="M124.5035,0.7036 C125.2025,0.7036 125.9015,1.2036 127.1055,2.3536 L145.1295,19.2786 L145.1295,2.6556 C145.1295,1.7586 145.5305,1.3526 146.4325,1.3526 L152.4875,1.3526 C153.3885,1.3526 153.8395,1.7586 153.8395,2.6556 L153.8395,35.0986 C153.8395,36.3516 153.4925,37.0506 152.6365,37.0506 C151.9375,37.0506 151.2385,36.5506 150.0345,35.4006 L132.0145,18.4756 L132.0145,35.0986 C132.0145,35.9996 131.6135,36.4006 130.6615,36.4006 L124.6025,36.4006 C123.7015,36.4006 123.2995,35.9996 123.2995,35.0986 L123.2995,2.6556 C123.2995,1.4066 123.6515,0.7036 124.5035,0.7036" id="Fill-7"></path>
                <path d="M167.1163,9.3647 L159.2083,9.3647 C158.3063,9.3647 157.9013,8.9677 157.9013,8.0617 L157.9013,2.6567 C157.9013,1.7587 158.3063,1.3537 159.2083,1.3537 L185.2403,1.3537 C186.1413,1.3537 186.5393,1.7587 186.5393,2.6567 L186.5393,8.0617 C186.5393,8.9677 186.1413,9.3647 185.2403,9.3647 L177.3323,9.3647 C176.7783,9.3647 176.5793,9.5677 176.5793,10.1177 L176.5793,35.0987 C176.5793,36.0007 176.1783,36.4017 175.2773,36.4017 L169.1683,36.4017 C168.2663,36.4017 167.8693,36.0007 167.8693,35.0987 L167.8693,10.1177 C167.8693,9.5677 167.6663,9.3647 167.1163,9.3647" id="Fill-9"></path>
                <path d="M205.3897,22.7832 C205.3897,22.6792 205.3897,22.5312 205.2857,22.3862 L202.0357,15.4712 L198.7807,22.3862 C198.6817,22.5312 198.6317,22.6792 198.6317,22.7832 C198.6317,23.0352 198.8297,23.1352 199.1817,23.1352 L204.8397,23.1352 C205.2407,23.1352 205.3897,23.0352 205.3897,22.7832 M202.1837,0.6062 C203.1357,0.6062 203.8347,1.2552 204.8397,3.2572 L220.5067,34.7482 C220.7087,35.1002 220.7587,35.4022 220.7587,35.6502 C220.7587,36.2002 220.3577,36.4032 219.6587,36.4032 L213.2977,36.4032 C212.0487,36.4032 211.6477,36.2002 211.1467,35.1002 L209.1947,30.9432 C208.9427,30.3932 208.7937,30.2942 208.2437,30.2942 L195.8267,30.2942 C195.2777,30.2942 195.1287,30.3932 194.8757,30.9432 L192.9737,35.1002 C192.4727,36.2002 192.0717,36.4032 190.8687,36.4032 L184.7637,36.4032 C184.0607,36.4032 183.6097,36.2002 183.6097,35.6502 C183.6097,35.4022 183.6597,35.1002 183.8617,34.7482 L199.5287,3.2572 C200.5347,1.2552 201.1827,0.6062 202.1837,0.6062" id="Fill-11"></path>
                <path d="M225.6714,1.3545 L231.7304,1.3545 C232.6814,1.3545 233.0834,1.7555 233.0834,2.6575 L233.0834,35.0995 C233.0834,35.9975 232.6814,36.4025 231.7304,36.4025 L225.6714,36.4025 C224.7744,36.4025 224.3684,35.9975 224.3684,35.0995 L224.3684,2.6575 C224.3684,1.7555 224.7744,1.3545 225.6714,1.3545" id="Fill-13"></path>
                <path d="M241.8765,0.7036 C242.5795,0.7036 243.2785,1.2036 244.4785,2.3536 L262.5025,19.2786 L262.5025,2.6556 C262.5025,1.7586 262.9035,1.3526 263.8055,1.3526 L269.8645,1.3526 C270.7665,1.3526 271.2125,1.7586 271.2125,2.6556 L271.2125,35.0986 C271.2125,36.3516 270.8655,37.0506 270.0135,37.0506 C269.3105,37.0506 268.6115,36.5506 267.4115,35.4006 L249.3875,18.4756 L249.3875,35.0986 C249.3875,35.9996 248.9865,36.4006 248.0355,36.4006 L241.9805,36.4006 C241.0745,36.4006 240.6775,35.9996 240.6775,35.0986 L240.6775,2.6556 C240.6775,1.4066 241.0245,0.7036 241.8765,0.7036" id="Fill-15"></path>
                <path d="M9.9425,53.7939 C9.9425,52.1169 8.8155,51.4389 6.5385,51.4389 L4.9095,51.4389 C4.6095,51.4389 4.5345,51.5409 4.5345,51.8149 L4.5345,55.8719 C4.5345,56.1469 4.6095,56.2459 4.9095,56.2459 L6.5385,56.2459 C8.7405,56.2459 9.9425,55.4449 9.9425,53.7939 M0.8285,47.4329 L6.7135,47.4329 C11.8455,47.4329 14.4485,49.5119 14.4485,53.7679 C14.4485,58.0509 11.6455,60.2519 6.5385,60.2519 L4.9095,60.2519 C4.6095,60.2519 4.5345,60.3539 4.5345,60.6289 L4.5345,64.3099 C4.5345,64.7589 4.3345,64.9599 3.8585,64.9599 L0.8285,64.9599 C0.3785,64.9599 0.1765,64.7589 0.1765,64.3099 L0.1765,48.0839 C0.1765,47.6339 0.3785,47.4329 0.8285,47.4329" id="Fill-17"></path>
                <path d="M26.6285,53.418 C26.6285,51.966 25.5765,51.439 23.5745,51.439 L21.6705,51.439 C21.3715,51.439 21.2955,51.542 21.2955,51.816 L21.2955,55.095 C21.2955,55.397 21.3715,55.496 21.6705,55.496 L23.5745,55.496 C25.6765,55.496 26.6285,54.794 26.6285,53.418 M17.5895,47.433 L23.7495,47.433 C28.6825,47.433 31.1345,49.388 31.1345,53.192 C31.1345,55.696 29.9325,57.349 28.1075,58.275 L31.9865,64.159 C32.1125,64.335 32.1625,64.484 32.1625,64.61 C32.1625,64.835 31.9615,64.96 31.5865,64.96 L28.2065,64.96 C27.5045,64.96 27.1795,64.759 26.8295,64.21 L23.9985,59.653 C23.8235,59.376 23.6735,59.3 23.3485,59.3 L21.6705,59.3 C21.3715,59.3 21.2955,59.376 21.2955,59.677 L21.2955,64.309 C21.2955,64.759 21.0945,64.96 20.6195,64.96 L17.5895,64.96 C17.1405,64.96 16.9385,64.759 16.9385,64.309 L16.9385,48.085 C16.9385,47.635 17.1405,47.433 17.5895,47.433" id="Fill-19"></path>
                <path d="M47.356,56.2222 C47.356,53.1162 45.229,51.1142 42.473,51.1142 C39.695,51.1142 37.617,53.1432 37.617,56.2222 C37.617,59.2762 39.67,61.2802 42.449,61.2802 C45.203,61.2802 47.356,59.2522 47.356,56.2222 M42.473,47.1082 C47.932,47.1082 51.862,50.8892 51.862,56.1982 C51.862,61.5292 47.908,65.2862 42.424,65.2862 C37.041,65.2862 33.11,61.5542 33.11,56.2462 C33.11,50.9152 37.067,47.1082 42.473,47.1082" id="Fill-21"></path>
                <path d="M54.1134,61.1816 C54.3894,61.1816 54.7644,61.2576 55.2154,61.2576 C56.3174,61.2576 57.0684,60.4046 57.0684,58.7776 L57.0684,48.0836 C57.0684,47.6346 57.2694,47.4326 57.7454,47.4326 L60.7734,47.4326 C61.2244,47.4326 61.4254,47.6346 61.4254,48.0836 L61.4254,59.0776 C61.4254,62.8846 59.8724,65.2636 55.7914,65.2636 C55.1154,65.2636 54.3394,65.2116 53.8634,65.0856 C53.3884,64.9626 53.2874,64.7606 53.3394,64.2606 L53.6134,61.8066 C53.6644,61.3296 53.7884,61.1816 54.1134,61.1816" id="Fill-23"></path>
                <path d="M66.2032,47.4331 L76.7192,47.4331 C77.1702,47.4331 77.3952,47.6351 77.3952,48.0841 L77.3952,50.7881 C77.3952,51.2641 77.1702,51.4391 76.7192,51.4391 L70.2852,51.4391 C69.9842,51.4391 69.9082,51.5411 69.9082,51.8161 L69.9082,53.7681 C69.9082,54.0691 69.9842,54.1431 70.2852,54.1431 L75.8922,54.1431 C76.3422,54.1431 76.5442,54.3441 76.5442,54.8201 L76.5442,57.4991 C76.5442,57.9511 76.3422,58.1491 75.8922,58.1491 L70.2852,58.1491 C69.9842,58.1491 69.9082,58.2491 69.9082,58.5261 L69.9082,60.5781 C69.9082,60.8541 69.9842,60.9541 70.2852,60.9541 L76.7432,60.9541 C77.1942,60.9541 77.4202,61.1291 77.4202,61.6051 L77.4202,64.3091 C77.4202,64.7591 77.1942,64.9601 76.7432,64.9601 L66.2032,64.9601 C65.7522,64.9601 65.5522,64.7591 65.5522,64.3091 L65.5522,48.0841 C65.5522,47.6351 65.7522,47.4331 66.2032,47.4331" id="Fill-25"></path>
                <path d="M95.6612,62.3555 C95.6612,62.5315 95.5362,62.7065 95.2852,62.9325 C93.5342,64.3845 91.2542,65.2865 88.7272,65.2865 C83.3932,65.2865 79.4112,61.4805 79.4112,56.2975 C79.4112,50.9895 83.4172,47.1075 88.9262,47.1075 C91.4802,47.1075 93.6822,48.0345 95.3872,49.4625 C95.5852,49.6385 95.6852,49.7885 95.6852,49.9385 C95.6852,50.0875 95.6372,50.2135 95.5112,50.3885 L94.0592,52.4415 C93.9082,52.6675 93.7582,52.7675 93.5832,52.7675 C93.4322,52.7675 93.2572,52.6915 93.0832,52.5655 C91.9322,51.7395 90.5292,51.1135 88.9022,51.1135 C86.0222,51.1135 83.9202,53.1675 83.9202,56.2225 C83.9202,59.1765 85.9982,61.2795 88.9022,61.2795 C90.5792,61.2795 91.9562,60.7045 93.1342,59.8025 C93.3322,59.6525 93.4832,59.5775 93.6332,59.5775 C93.8082,59.5775 93.9342,59.6765 94.0832,59.8775 L95.5112,61.9295 C95.6122,62.0805 95.6612,62.2305 95.6612,62.3555" id="Fill-27"></path>
                <path d="M101.6871,51.4394 L97.7311,51.4394 C97.2801,51.4394 97.0791,51.2404 97.0791,50.7884 L97.0791,48.0844 C97.0791,47.6344 97.2801,47.4334 97.7311,47.4334 L110.7511,47.4334 C111.2021,47.4334 111.4011,47.6344 111.4011,48.0844 L111.4011,50.7884 C111.4011,51.2404 111.2021,51.4394 110.7511,51.4394 L106.7951,51.4394 C106.5201,51.4394 106.4181,51.5414 106.4181,51.8154 L106.4181,64.3094 C106.4181,64.7584 106.2201,64.9604 105.7691,64.9604 L102.7131,64.9604 C102.2631,64.9604 102.0641,64.7584 102.0641,64.3094 L102.0641,51.8154 C102.0641,51.5414 101.9611,51.4394 101.6871,51.4394" id="Fill-29"></path>
            </g>
            <g id="Group-2">
                <path d="M100,34.6671 C100,29.5631 97.229,24.8061 92.769,22.2531 L57.231,1.9201 C55.036,0.6641 52.535,0.0001 50,0.0001 C47.465,0.0001 44.964,0.6641 42.769,1.9201 L7.231,22.2531 C2.771,24.8061 0,29.5631 0,34.6671 L0,75.3331 C0,80.4381 2.771,85.1941 7.232,87.7461 L42.768,108.0791 C44.964,109.3361 47.465,110.0001 50,110.0001 C52.535,110.0001 55.036,109.3361 57.231,108.0791 L92.769,87.7461 C95.094,86.4161 96.953,84.4831 98.207,82.2181 C99.359,80.1381 100,77.7761 100,75.3331 L100,34.6671 Z" id="Fill-1" fill="#336799"></path>
                <path d="M59.1367,64.6173 C58.9897,64.7373 58.7817,64.8993 58.5437,65.0783 C58.4247,64.9843 58.3037,64.8883 58.2477,64.8193 C57.1387,63.4763 54.6137,59.7203 54.0937,59.0893 C53.7137,58.6283 53.0487,57.8793 52.8307,57.8043 C53.4647,56.7383 54.5727,54.8203 55.6807,52.9453 C55.9087,53.2543 56.1497,53.5773 56.4117,53.9303 C56.4117,53.9303 57.5237,55.6593 58.4917,58.2003 C59.0987,59.4833 59.3937,61.4523 59.3937,61.4523 L59.7927,61.5913 C59.8097,61.9293 59.8607,62.3463 59.9407,62.7773 C59.7467,63.6603 59.4467,64.2343 59.1367,64.6173 M67.6487,35.1193 L69.3657,28.5473 L69.5297,28.2833 C69.5297,28.2833 70.0427,27.8663 70.3287,27.4263 C70.3287,27.4263 70.5517,27.0943 70.6157,26.7463 C70.6157,26.7463 70.7497,26.2963 70.8527,26.0303 C78.3047,32.7903 89.3827,42.8463 93.5717,46.6773 L93.5717,34.6673 C93.5717,31.8223 92.0397,29.1933 89.5537,27.7703 L54.0177,7.4373 C52.7747,6.7263 51.3877,6.3703 49.9997,6.3703 C48.6127,6.3703 47.2257,6.7263 45.9827,7.4373 L10.4467,27.7703 C7.9597,29.1933 6.4287,31.8223 6.4287,34.6673 L6.4287,46.6773 C11.4897,42.1083 28.3717,26.9593 28.3717,26.9593 C28.5227,26.8243 28.7577,26.7003 29.0537,26.7003 C29.3807,26.7003 29.6147,26.8443 29.7657,26.9913 L37.2607,34.2143 C37.6237,34.5763 37.6577,35.1303 37.4267,35.4753 L31.0287,45.0783 C30.7087,45.5823 30.8737,46.1553 31.2317,46.4343 C31.6297,46.7473 32.1877,46.7503 32.5847,46.3823 L62.2427,19.4473 C62.4437,19.2643 62.7107,19.1923 62.9177,19.1923 C63.1247,19.1923 63.3937,19.2633 63.5937,19.4473 C63.5937,19.4473 65.8687,21.5103 69.1987,24.5293 C69.1327,24.6543 69.0437,24.8163 68.9187,25.0333 C68.9187,25.0333 68.6707,25.5133 68.5507,25.8523 C68.4777,26.0603 68.3187,26.5303 68.2317,26.9063 C68.1777,27.1423 68.0097,27.7633 68.0097,27.7633 C68.0097,27.7633 67.9337,28.1123 67.8897,28.2473 C67.5107,29.4123 66.3997,31.3113 66.2357,31.6443 L65.2037,33.9263 C65.2037,33.9263 64.5167,35.3633 64.0167,37.2383 C64.0167,37.2383 61.7627,40.2383 59.6317,43.0943 L59.6257,43.0823 C59.4107,43.2973 58.9097,43.6463 58.3557,43.7973 C58.0637,43.4133 57.6967,42.8533 57.6727,42.8213 C57.6157,42.7423 57.4987,42.5223 57.5757,42.2393 C57.6537,41.9563 58.0647,41.3843 58.0647,41.3843 C58.2607,41.1833 58.2917,40.8563 58.1857,40.7003 C58.0787,40.5413 57.8887,40.4543 57.8247,40.4173 C57.7637,40.3813 57.7077,40.2503 57.7167,40.1563 C57.7257,40.0613 57.5587,39.9923 57.5587,39.9923 L57.2597,40.0673 L57.1847,40.0763 L57.2017,39.6953 C57.2017,39.6953 57.1907,39.6033 57.0607,39.5883 C56.9967,39.5803 56.7747,39.3893 56.7867,39.3193 C56.7997,39.2493 56.8567,39.0573 56.8567,38.7663 C56.8567,38.5273 56.6317,38.5633 56.6317,38.5633 C56.6317,38.5633 55.6507,38.5443 55.5807,38.5353 C55.5127,38.5273 55.2747,38.3943 55.2037,38.3033 C55.1337,38.2113 55.0207,38.1093 55.0207,38.1093 C54.8657,38.0253 53.9237,37.8493 53.7857,37.8613 C53.6487,37.8723 53.0517,37.7673 52.9957,37.7173 C52.9397,37.6653 52.6577,37.5463 52.4377,37.4283 C52.2177,37.3113 51.3847,37.9413 51.1797,38.0833 C50.9757,38.2233 50.2017,39.0553 49.7377,39.8463 C49.6397,40.0123 49.5737,40.1703 49.5207,40.3313 C49.5197,40.3323 49.5187,40.3313 49.5167,40.3323 L49.0637,41.3013 C49.0637,41.3013 48.8767,41.3983 48.7827,41.4883 C48.5897,41.6613 48.4877,42.0283 48.4877,42.0283 C48.4877,42.0283 48.2737,43.1183 48.1367,43.6163 C48.1367,43.6163 48.0077,44.5553 47.9277,44.9403 C47.8797,45.1743 47.7177,46.5643 47.6807,46.7843 C47.6437,47.0033 47.5497,48.0323 47.5497,48.0323 C47.5497,48.0323 47.4717,48.6433 47.4727,49.0253 C47.4737,49.3373 47.6637,49.4803 47.7077,49.5133 C47.7507,49.5453 48.0387,49.7353 48.0387,49.7353 C48.0387,49.7353 47.7777,51.0653 48.3757,52.0453 C48.3757,52.0453 48.4007,51.7383 48.7017,51.2233 C48.7017,51.2233 49.0907,51.5663 48.8597,52.5123 C48.8597,52.5123 49.3977,52.2883 49.4837,51.2143 L49.6927,50.5373 C49.6927,50.5373 49.7957,51.2033 50.4947,51.5733 C50.4947,51.5733 49.9567,50.3553 49.9247,49.8463 C49.8897,49.2703 49.9707,48.6963 49.9707,48.6963 C49.9707,48.6963 50.2267,49.0313 50.1587,49.7063 C50.1587,49.7063 50.6927,48.4303 50.0007,46.3233 C49.8487,45.7763 49.6557,44.7433 49.4427,43.8543 C49.3957,43.6623 49.2877,42.8833 49.2747,42.7453 C49.2557,42.5633 49.3577,42.4703 49.3577,42.4703 C49.3837,42.4793 49.6157,42.7153 49.7027,42.7733 C49.7817,42.9633 49.9147,43.2353 50.1517,43.5503 L50.1987,43.5963 C50.1987,43.5963 50.7507,44.2823 52.0227,44.7013 C52.0337,44.7063 52.0547,44.7153 52.0607,44.7183 C52.2007,44.7773 52.6977,44.8923 53.1397,44.8963 C53.6297,44.8993 53.8757,44.7293 54.1177,44.6733 C54.3527,44.6183 54.5867,44.7983 54.5867,44.7983 C54.5867,44.7983 54.8287,45.1053 55.0957,45.4423 L55.0947,45.4573 C55.0947,45.4573 55.2527,45.7503 55.0957,46.0533 C54.2607,46.8963 53.0897,48.2833 53.1107,49.4573 C53.1107,49.4573 53.1157,49.4653 53.1157,49.4663 C51.7797,52.3183 49.9847,56.8303 49.7817,57.2893 C49.7817,57.2893 49.5417,57.8573 49.5317,58.2923 C49.5077,58.6143 49.8467,58.8453 50.0547,59.1123 C50.1817,59.2753 50.5297,59.7833 50.6797,59.9613 C51.2387,60.6213 51.7917,61.1363 52.4577,61.7973 L57.1757,66.0153 C56.7867,66.2563 56.3717,66.4933 55.9437,66.6993 C55.9897,68.5293 58.6507,70.9853 58.6507,70.9853 C60.6247,71.0693 61.4937,69.2693 61.4937,69.2693 C61.4637,67.5303 59.9797,65.2683 59.9797,65.2683 L59.7177,64.8383 C59.9137,64.5143 60.0737,64.1603 60.2067,63.7783 C60.3247,64.1053 60.4647,64.4263 60.6577,64.7143 C60.6577,64.7143 61.6997,66.1803 63.4097,66.4713 C64.0807,67.0263 67.7337,69.8313 74.2727,71.1053 C74.3237,71.2153 74.3737,71.3353 74.4237,71.4793 C74.5477,71.8423 74.9337,73.2303 75.0527,73.5383 C75.2817,74.1233 75.7667,75.1803 76.5167,76.3583 L78.3287,79.2073 L78.7517,79.1393 C78.9227,79.4143 79.1167,79.8483 78.9647,80.2463 C78.9647,80.2463 77.5557,81.1943 78.9977,82.9523 C78.9977,82.9523 79.3127,83.1573 79.5987,83.1173 C80.1127,83.0453 80.7687,83.2083 81.5877,84.1323 C81.5877,84.1323 82.6557,85.3883 83.7827,85.2173 L84.6827,84.9603 C84.6827,84.9603 85.4647,84.7633 84.1117,83.0453 C83.1557,81.8313 83.0147,81.3783 82.5537,80.9283 C82.0927,80.4783 81.4857,80.0823 81.4857,80.0823 L80.5697,77.7093 L80.7177,77.4193 L79.4717,74.5983 L77.2917,69.3513 C77.1877,69.0303 77.3017,68.4553 76.9247,68.0383 C76.9267,68.0363 76.7577,67.8393 76.6077,67.7403 C76.3777,67.5763 76.1277,67.4253 75.8677,67.2933 L69.2947,63.0103 C69.2947,63.0103 71.4147,63.1223 77.0267,59.4803 C77.6687,60.0803 79.0827,60.7653 80.1537,61.0223 C82.1587,61.5043 84.2237,62.3073 84.2237,62.3073 C84.2237,62.3073 84.3797,62.2273 84.4677,61.9033 C84.4677,61.9033 85.7117,62.1853 86.6947,62.7543 C86.7797,62.8193 86.8227,62.8953 86.8697,63.0053 C86.8697,63.0053 86.7227,63.2443 86.7447,63.3803 C86.7677,63.5163 87.2447,63.6983 87.2447,63.6983 C87.2447,63.6983 88.0177,64.9473 88.7247,64.6093 C88.7247,64.6093 89.6127,64.3323 89.8077,63.7303 C89.8077,63.7303 90.0107,62.6983 91.5667,62.1063 C91.5667,62.1063 93.1227,61.5143 93.4647,60.4623 C93.4647,60.4623 93.9957,59.2373 91.9187,59.6933 L89.2547,60.6083 L87.5527,61.1693 L85.1597,59.8973 C85.1627,59.7693 85.1307,59.7243 85.1307,59.7243 L83.4557,58.9483 C82.5527,58.3753 80.3197,56.9803 78.9037,56.3043 C78.5467,56.1033 78.1257,55.8823 78.1267,55.8803 C77.4387,55.5403 77.5557,55.2233 76.1707,55.6513 L66.4397,58.3443 C66.0527,57.5873 65.1717,55.7723 64.9647,54.5343 L63.8347,50.9303 C63.8347,50.9303 65.2117,49.8043 64.6107,48.5823 C64.6107,48.5823 64.5187,48.3653 63.8857,47.8343 C63.8857,47.8343 63.2177,47.2783 62.3977,46.4873 C63.8817,43.5893 66.0437,39.5613 66.6107,38.1443 C66.6107,38.1443 67.2707,36.8453 67.6487,35.1193" id="Fill-4" fill="#FFFFFF"></path>
            </g>
        </g>
    </g>
</svg>